<svg width="512" height="512" viewBox="0 0 512 512" fill="none" xmlns="http://www.w3.org/2000/svg">
<path opacity="0.2" d="M44.3907 156.627C43.5808 156.627 42.7804 156.668 41.9923 156.748C30.5629 157.899 21.6136 167.197 21.0296 178.768C21.0093 179.166 21.0003 179.567 21.0003 179.971V437.624C21.0003 438.027 21.0094 438.428 21.0296 438.825V438.829C21.6135 450.4 30.5631 459.697 41.9923 460.849H41.9981C42.3904 460.889 42.7859 460.919 43.1837 460.939C43.5836 460.96 43.9857 460.969 44.3907 460.969H467.604C480.521 460.969 490.995 450.516 490.995 437.625V179.971C490.995 176.235 490.111 172.708 488.548 169.577L488.565 169.555C486.084 164.577 481.87 160.629 476.708 158.462C476.076 158.196 475.431 157.959 474.772 157.749C474.689 157.722 474.607 157.692 474.524 157.667C474.273 157.59 474.019 157.52 473.764 157.452C473.541 157.391 473.316 157.334 473.09 157.28C472.863 157.226 472.637 157.171 472.407 157.124C471.983 157.035 471.557 156.956 471.126 156.891C470.973 156.868 470.818 156.852 470.665 156.833C470.307 156.786 469.946 156.748 469.583 156.718C469.431 156.706 469.28 156.692 469.128 156.682C468.623 156.65 468.117 156.628 467.604 156.628L44.3907 156.627Z" fill="#F5F5F5" stroke="black" stroke-width="10"/>
<path d="M234.773 46.0467L71.8533 46.3019C58.484 44.4477 47.5467 58.8644 47.5467 74.4632V154.302C48.3696 154.213 49.1977 154.156 50.0415 154.156H233.188L277.36 101.52L234.773 46.0467Z" fill="#357AF0"/>
<path fill-rule="evenodd" clip-rule="evenodd" d="M275.507 101.547L230.933 154.156H461.893C463.951 154.156 465.945 154.422 467.873 154.901L467.909 127.01C467.925 115.771 462.221 106.062 453.956 101.546L275.507 101.547Z" fill="#306ED7"/>
<path opacity="0.296" d="M467.88 126.2L467.868 134.899C465.941 134.42 463.945 134.155 461.888 134.155H233.178H230.924H50.0339C49.1901 134.155 48.3627 134.213 47.5398 134.302V154.302C48.3627 154.213 49.1902 154.155 50.0339 154.155H230.924H233.178H461.888C463.945 154.155 465.941 154.42 467.868 154.899L467.903 127.008C467.904 126.736 467.886 126.47 467.88 126.2Z" fill="black"/>
<path d="M44.3907 151.64H467.604C480.521 151.64 490.995 162.088 490.995 174.984V442.611C490.995 455.501 480.521 465.955 467.604 465.955H44.3907C31.474 465.955 21 455.502 21 442.611V174.984C21 162.088 31.474 151.64 44.3907 151.64Z" fill="#306ED7"/>
<path d="M44.3907 151.64C31.4323 151.64 21 162.051 21 174.984V442.611C21 455.543 31.4323 465.955 44.3907 465.955H247.151L488.564 164.568C484.741 156.896 476.819 151.641 467.616 151.641L44.3907 151.64Z" fill="#357AF0"/>
<path d="M20.9293 432.8V442.8C20.9293 455.691 31.4033 466.144 44.32 466.144H467.547C480.464 466.144 490.937 455.691 490.937 442.8V432.8C490.937 445.691 480.463 456.144 467.547 456.144H44.32C31.4029 456.144 20.9293 445.691 20.9293 432.8Z" fill="#224E98"/>
<path opacity="0.1" d="M234.77 45.746L71.85 46.0019C58.481 44.1478 47.543 58.5649 47.543 74.1639V84.1639C47.543 68.5649 58.48 54.1479 71.85 56.0019L234.77 55.746L277.356 111.221L277.335 111.246H453.954C462.123 115.709 467.779 125.247 467.896 136.318L467.907 126.711C467.923 115.471 462.22 105.762 453.954 101.246H277.334L277.356 101.221L234.77 45.746Z" fill="#F4F8FE"/>
<path d="M183.593 225.769H328.406C341.777 225.769 352.542 233.814 352.542 249.904V274.13H326.793L326.542 247.949H185.453L185.705 274.13H159.454V249.904C159.454 236.533 170.222 225.769 183.593 225.769Z" fill="url(#paint0_linear_15_3)"/>
<path opacity="0.1" d="M340.474 256.099H171.525C164.86 256.099 159.457 261.502 159.457 268.167V276.212C159.457 282.877 164.86 288.28 171.525 288.28H340.474C347.139 288.28 352.542 282.877 352.542 276.212V268.167C352.542 261.502 347.139 256.099 340.474 256.099Z" fill="black"/>
<path d="M183.593 247.973C170.222 247.973 159.457 252.738 159.457 266.109V274.154H185.457V264.064H326.545V274.154H352.545V266.109C352.545 252.738 341.781 247.973 328.409 247.973H183.593Z" fill="#B3B3B3"/>
<path opacity="0.1" d="M326.797 258.03H185.725V274.12H326.797V258.03Z" fill="black"/>
<path d="M44.391 151.64C31.474 151.64 21 162.088 21 174.984V184.984C21 172.088 31.474 161.64 44.391 161.64H467.601C480.518 161.64 490.992 172.088 490.992 184.984V174.984C490.992 162.088 480.518 151.64 467.601 151.64H44.391Z" fill="#224E98"/>
<defs>
<linearGradient id="paint0_linear_15_3" x1="133.326" y1="376.697" x2="373.902" y2="376.697" gradientUnits="userSpaceOnUse">
<stop stop-color="#B3B3B3"/>
<stop offset="0.16809" stop-color="#E6E6E6"/>
<stop offset="0.26651" stop-color="#CCCCCC"/>
<stop offset="0.74269" stop-color="#CCCCCC"/>
<stop offset="0.86174" stop-color="#E6E6E6"/>
<stop offset="1" stop-color="#B3B3B3"/>
</linearGradient>
</defs>
</svg>
